<svg width="512" height="512" viewBox="0 0 512 512" fill="none" xmlns="http://www.w3.org/2000/svg">
<rect width="512" height="512" fill="#003257"/>
<path d="M188.424 109.6V123.744C187.955 123.872 187.208 124 186.184 124.128C185.16 124.256 184.157 124.32 183.176 124.32C182.195 124.32 181.32 124.235 180.552 124.064C179.827 123.936 179.208 123.68 178.696 123.296C178.184 122.912 177.8 122.379 177.544 121.696C177.288 121.013 177.16 120.117 177.16 119.008V85.216C177.629 85.1307 178.376 85.024 179.4 84.896C180.424 84.7253 181.405 84.64 182.344 84.64C183.325 84.64 184.179 84.7253 184.904 84.896C185.672 85.024 186.312 85.28 186.824 85.664C187.336 86.048 187.72 86.5813 187.976 87.264C188.232 87.9467 188.36 88.8427 188.36 89.952V100.128L201.672 84.832C204.573 84.832 206.643 85.3867 207.88 86.496C209.16 87.5627 209.8 88.8427 209.8 90.336C209.8 91.4453 209.523 92.4907 208.968 93.472C208.413 94.4533 207.517 95.5627 206.28 96.8L198.28 104.8C199.347 105.995 200.456 107.232 201.608 108.512C202.76 109.792 203.912 111.051 205.064 112.288C206.216 113.483 207.304 114.635 208.328 115.744C209.352 116.853 210.269 117.813 211.08 118.624C211.08 119.563 210.909 120.395 210.568 121.12C210.227 121.845 209.757 122.464 209.16 122.976C208.605 123.488 207.965 123.872 207.24 124.128C206.515 124.384 205.747 124.512 204.936 124.512C203.187 124.512 201.757 124.085 200.648 123.232C199.539 122.336 198.472 121.291 197.448 120.096L188.424 109.6ZM229.015 117.088C229.74 117.088 230.53 117.024 231.383 116.896C232.279 116.725 232.94 116.512 233.367 116.256V111.136L228.759 111.52C227.564 111.605 226.583 111.861 225.815 112.288C225.047 112.715 224.663 113.355 224.663 114.208C224.663 115.061 224.983 115.765 225.623 116.32C226.306 116.832 227.436 117.088 229.015 117.088ZM228.503 91.936C230.807 91.936 232.898 92.1707 234.775 92.64C236.695 93.1093 238.316 93.8347 239.639 94.816C241.004 95.7547 242.05 96.9707 242.775 98.464C243.5 99.9147 243.863 101.643 243.863 103.648V117.984C243.863 119.093 243.543 120.011 242.903 120.736C242.306 121.419 241.58 122.016 240.727 122.528C237.954 124.192 234.05 125.024 229.015 125.024C226.754 125.024 224.706 124.811 222.871 124.384C221.079 123.957 219.522 123.317 218.199 122.464C216.919 121.611 215.916 120.523 215.191 119.2C214.508 117.877 214.167 116.341 214.167 114.592C214.167 111.648 215.042 109.387 216.791 107.808C218.54 106.229 221.25 105.248 224.919 104.864L233.303 103.968V103.52C233.303 102.283 232.748 101.408 231.639 100.896C230.572 100.341 229.015 100.064 226.967 100.064C225.346 100.064 223.767 100.235 222.231 100.576C220.695 100.917 219.308 101.344 218.071 101.856C217.516 101.472 217.047 100.896 216.663 100.128C216.279 99.3173 216.087 98.4853 216.087 97.632C216.087 96.5227 216.343 95.648 216.855 95.008C217.41 94.3253 218.242 93.7493 219.351 93.28C220.588 92.8107 222.039 92.4693 223.703 92.256C225.41 92.0427 227.01 91.936 228.503 91.936ZM250.516 93.344C250.942 93.216 251.604 93.088 252.5 92.96C253.438 92.832 254.398 92.768 255.38 92.768C256.318 92.768 257.15 92.832 257.876 92.96C258.644 93.088 259.284 93.344 259.796 93.728C260.308 94.112 260.692 94.6453 260.948 95.328C261.246 95.968 261.396 96.8213 261.396 97.888V111.648C261.396 113.397 261.822 114.656 262.676 115.424C263.529 116.149 264.766 116.512 266.388 116.512C267.369 116.512 268.158 116.427 268.756 116.256C269.396 116.085 269.886 115.915 270.228 115.744V93.344C270.654 93.216 271.316 93.088 272.212 92.96C273.15 92.832 274.11 92.768 275.092 92.768C276.03 92.768 276.862 92.832 277.588 92.96C278.356 93.088 278.996 93.344 279.507 93.728C280.02 94.112 280.404 94.6453 280.66 95.328C280.958 95.968 281.108 96.8213 281.108 97.888V117.344C281.108 119.477 280.212 121.077 278.42 122.144C276.926 123.083 275.134 123.787 273.044 124.256C270.996 124.768 268.756 125.024 266.324 125.024C264.02 125.024 261.886 124.768 259.924 124.256C258.004 123.744 256.34 122.955 254.932 121.888C253.524 120.821 252.436 119.456 251.668 117.792C250.9 116.085 250.516 114.037 250.516 111.648V93.344ZM314.006 114.72C314.006 117.963 312.79 120.501 310.358 122.336C307.926 124.171 304.342 125.088 299.606 125.088C297.814 125.088 296.15 124.96 294.614 124.704C293.078 124.448 291.755 124.064 290.646 123.552C289.579 122.997 288.726 122.315 288.086 121.504C287.488 120.693 287.19 119.733 287.19 118.624C287.19 117.6 287.403 116.747 287.83 116.064C288.256 115.339 288.768 114.741 289.366 114.272C290.603 114.955 292.011 115.573 293.59 116.128C295.211 116.64 297.067 116.896 299.158 116.896C300.48 116.896 301.483 116.704 302.166 116.32C302.891 115.936 303.253 115.424 303.253 114.784C303.253 114.187 302.998 113.717 302.486 113.376C301.974 113.035 301.12 112.757 299.926 112.544L298.006 112.16C294.294 111.435 291.52 110.304 289.686 108.768C287.894 107.189 286.998 104.949 286.998 102.048C286.998 100.469 287.339 99.04 288.022 97.76C288.704 96.48 289.664 95.4133 290.902 94.56C292.139 93.7067 293.611 93.0453 295.318 92.576C297.067 92.1067 298.987 91.872 301.078 91.872C302.656 91.872 304.128 92 305.494 92.256C306.902 92.4693 308.118 92.8107 309.142 93.28C310.166 93.7493 310.976 94.368 311.574 95.136C312.171 95.8613 312.47 96.736 312.47 97.76C312.47 98.7413 312.278 99.5947 311.894 100.32C311.552 101.003 311.104 101.579 310.55 102.048C310.208 101.835 309.696 101.621 309.014 101.408C308.331 101.152 307.584 100.939 306.774 100.768C305.963 100.555 305.131 100.384 304.278 100.256C303.467 100.128 302.72 100.064 302.038 100.064C300.63 100.064 299.542 100.235 298.774 100.576C298.006 100.875 297.622 101.365 297.622 102.048C297.622 102.517 297.835 102.901 298.262 103.2C298.688 103.499 299.499 103.776 300.694 104.032L302.678 104.48C306.774 105.419 309.675 106.72 311.382 108.384C313.131 110.005 314.006 112.117 314.006 114.72ZM330.146 113.312C330.146 114.421 330.487 115.211 331.17 115.68C331.895 116.149 332.898 116.384 334.178 116.384C334.818 116.384 335.479 116.341 336.162 116.256C336.844 116.128 337.442 115.979 337.954 115.808C338.338 116.277 338.658 116.811 338.914 117.408C339.212 117.963 339.362 118.645 339.362 119.456C339.362 121.077 338.743 122.4 337.506 123.424C336.311 124.448 334.178 124.96 331.106 124.96C327.351 124.96 324.45 124.107 322.402 122.4C320.396 120.693 319.394 117.92 319.394 114.08V86.688C319.863 86.56 320.524 86.432 321.378 86.304C322.274 86.1333 323.212 86.048 324.194 86.048C326.071 86.048 327.522 86.3893 328.546 87.072C329.612 87.712 330.146 89.0987 330.146 91.232V95.328H338.53C338.786 95.7973 339.02 96.3947 339.234 97.12C339.49 97.8027 339.618 98.5707 339.618 99.424C339.618 100.917 339.276 102.005 338.594 102.688C337.954 103.328 337.079 103.648 335.97 103.648H330.146V113.312ZM344.891 93.344C345.317 93.216 345.979 93.088 346.875 92.96C347.813 92.832 348.773 92.768 349.755 92.768C350.693 92.768 351.525 92.832 352.251 92.96C353.019 93.088 353.659 93.344 354.171 93.728C354.683 94.112 355.067 94.6453 355.323 95.328C355.621 95.968 355.771 96.8213 355.771 97.888V111.648C355.771 113.397 356.197 114.656 357.051 115.424C357.904 116.149 359.141 116.512 360.763 116.512C361.744 116.512 362.533 116.427 363.131 116.256C363.771 116.085 364.261 115.915 364.603 115.744V93.344C365.029 93.216 365.691 93.088 366.587 92.96C367.525 92.832 368.485 92.768 369.467 92.768C370.405 92.768 371.237 92.832 371.963 92.96C372.731 93.088 373.371 93.344 373.882 93.728C374.395 94.112 374.779 94.6453 375.035 95.328C375.333 95.968 375.483 96.8213 375.483 97.888V117.344C375.483 119.477 374.587 121.077 372.795 122.144C371.301 123.083 369.509 123.787 367.419 124.256C365.371 124.768 363.131 125.024 360.699 125.024C358.395 125.024 356.261 124.768 354.299 124.256C352.379 123.744 350.715 122.955 349.307 121.888C347.899 120.821 346.811 119.456 346.043 117.792C345.275 116.085 344.891 114.037 344.891 111.648V93.344ZM382.269 82.336C382.695 82.208 383.378 82.08 384.317 81.952C385.255 81.7813 386.215 81.696 387.197 81.696C388.135 81.696 388.967 81.76 389.693 81.888C390.461 82.016 391.101 82.272 391.613 82.656C392.125 83.04 392.509 83.5733 392.765 84.256C393.021 84.896 393.149 85.7493 393.149 86.816V93.088C394.215 92.6613 395.218 92.3627 396.157 92.192C397.138 92.0213 398.205 91.936 399.357 91.936C401.405 91.936 403.346 92.2987 405.181 93.024C407.015 93.7493 408.637 94.816 410.045 96.224C411.453 97.5893 412.562 99.296 413.373 101.344C414.183 103.392 414.589 105.76 414.589 108.448C414.589 111.221 414.162 113.653 413.309 115.744C412.498 117.792 411.346 119.499 409.853 120.864C408.359 122.229 406.525 123.275 404.349 124C402.215 124.683 399.847 125.024 397.245 125.024C394.429 125.024 392.039 124.683 390.077 124C388.114 123.36 386.45 122.549 385.085 121.568C383.207 120.245 382.269 118.539 382.269 116.448V82.336ZM397.245 116.448C399.207 116.448 400.722 115.787 401.789 114.464C402.898 113.099 403.453 111.093 403.453 108.448C403.453 105.76 402.898 103.755 401.789 102.432C400.679 101.109 399.186 100.448 397.309 100.448C396.455 100.448 395.709 100.533 395.069 100.704C394.471 100.875 393.81 101.131 393.085 101.472V115.424C393.554 115.723 394.109 115.979 394.749 116.192C395.431 116.363 396.263 116.448 397.245 116.448ZM450.611 123.936C450.184 124.064 449.501 124.192 448.562 124.32C447.667 124.448 446.728 124.512 445.747 124.512C444.808 124.512 443.955 124.448 443.187 124.32C442.461 124.192 441.843 123.936 441.331 123.552C440.819 123.168 440.413 122.656 440.115 122.016C439.859 121.333 439.731 120.459 439.731 119.392V105.184C439.731 103.435 439.283 102.219 438.387 101.536C437.533 100.811 436.467 100.448 435.187 100.448C434.333 100.448 433.523 100.555 432.755 100.768C431.987 100.981 431.368 101.237 430.899 101.536V123.936C430.472 124.064 429.789 124.192 428.851 124.32C427.955 124.448 427.016 124.512 426.035 124.512C425.096 124.512 424.243 124.448 423.475 124.32C422.749 124.192 422.131 123.936 421.619 123.552C421.107 123.168 420.701 122.656 420.403 122.016C420.147 121.333 420.019 120.459 420.019 119.392V82.272C420.488 82.1867 421.171 82.08 422.067 81.952C423.005 81.7813 423.944 81.696 424.883 81.696C425.821 81.696 426.653 81.76 427.379 81.888C428.147 82.016 428.787 82.272 429.299 82.656C429.811 83.04 430.195 83.5733 430.451 84.256C430.749 84.896 430.899 85.7493 430.899 86.816V93.088C431.453 92.8747 432.285 92.64 433.395 92.384C434.547 92.0853 435.805 91.936 437.171 91.936C441.395 91.936 444.68 93.0027 447.027 95.136C449.416 97.2267 450.611 100.363 450.611 104.544V123.936Z" fill="white"/>
<path d="M282.208 142.184C282.571 141.971 283.115 141.768 283.84 141.576C284.587 141.384 285.333 141.288 286.08 141.288C287.147 141.288 288.085 141.448 288.896 141.768C289.728 142.067 290.261 142.547 290.496 143.208C290.88 144.317 291.296 145.608 291.744 147.08C292.192 148.552 292.64 150.077 293.088 151.656C293.536 153.213 293.973 154.76 294.4 156.296C294.827 157.811 295.2 159.155 295.52 160.328C295.264 160.627 294.88 160.861 294.368 161.032C293.856 161.224 293.248 161.32 292.544 161.32C292.032 161.32 291.595 161.277 291.232 161.192C290.891 161.107 290.603 160.979 290.368 160.808C290.155 160.637 289.973 160.413 289.824 160.136C289.696 159.859 289.579 159.539 289.472 159.176L288.896 156.968H283.104C282.933 157.608 282.763 158.269 282.592 158.952C282.421 159.635 282.251 160.296 282.08 160.936C281.781 161.043 281.461 161.128 281.12 161.192C280.8 161.277 280.405 161.32 279.936 161.32C278.848 161.32 278.037 161.139 277.504 160.776C276.992 160.392 276.736 159.869 276.736 159.208C276.736 158.909 276.779 158.611 276.864 158.312C276.949 158.013 277.045 157.661 277.152 157.256C277.301 156.68 277.504 155.965 277.76 155.112C278.037 154.259 278.336 153.341 278.656 152.36C278.976 151.357 279.317 150.333 279.68 149.288C280.043 148.243 280.384 147.261 280.704 146.344C281.024 145.405 281.312 144.573 281.568 143.848C281.845 143.123 282.059 142.568 282.208 142.184ZM286.048 146.312C285.749 147.208 285.408 148.211 285.024 149.32C284.661 150.408 284.331 151.517 284.032 152.648H288C287.701 151.496 287.392 150.376 287.072 149.288C286.773 148.179 286.496 147.187 286.24 146.312H286.048ZM310.847 156.36C310.847 157.981 310.239 159.251 309.023 160.168C307.807 161.085 306.015 161.544 303.647 161.544C302.751 161.544 301.919 161.48 301.151 161.352C300.383 161.224 299.721 161.032 299.167 160.776C298.633 160.499 298.207 160.157 297.887 159.752C297.588 159.347 297.439 158.867 297.439 158.312C297.439 157.8 297.545 157.373 297.759 157.032C297.972 156.669 298.228 156.371 298.527 156.136C299.145 156.477 299.849 156.787 300.639 157.064C301.449 157.32 302.377 157.448 303.423 157.448C304.084 157.448 304.585 157.352 304.927 157.16C305.289 156.968 305.47 156.712 305.47 156.392C305.47 156.093 305.343 155.859 305.087 155.688C304.831 155.517 304.404 155.379 303.807 155.272L302.847 155.08C300.991 154.717 299.604 154.152 298.687 153.384C297.791 152.595 297.343 151.475 297.343 150.024C297.343 149.235 297.513 148.52 297.855 147.88C298.196 147.24 298.676 146.707 299.295 146.28C299.913 145.853 300.649 145.523 301.503 145.288C302.377 145.053 303.337 144.936 304.383 144.936C305.172 144.936 305.908 145 306.591 145.128C307.295 145.235 307.903 145.405 308.415 145.64C308.927 145.875 309.332 146.184 309.631 146.568C309.929 146.931 310.079 147.368 310.079 147.88C310.079 148.371 309.983 148.797 309.791 149.16C309.62 149.501 309.396 149.789 309.119 150.024C308.948 149.917 308.692 149.811 308.351 149.704C308.009 149.576 307.636 149.469 307.231 149.384C306.825 149.277 306.409 149.192 305.983 149.128C305.577 149.064 305.204 149.032 304.863 149.032C304.159 149.032 303.615 149.117 303.231 149.288C302.847 149.437 302.655 149.683 302.655 150.024C302.655 150.259 302.761 150.451 302.975 150.6C303.188 150.749 303.593 150.888 304.191 151.016L305.183 151.24C307.231 151.709 308.681 152.36 309.535 153.192C310.409 154.003 310.847 155.059 310.847 156.36ZM326.597 156.36C326.597 157.981 325.989 159.251 324.773 160.168C323.557 161.085 321.765 161.544 319.397 161.544C318.501 161.544 317.669 161.48 316.901 161.352C316.133 161.224 315.471 161.032 314.917 160.776C314.383 160.499 313.957 160.157 313.637 159.752C313.338 159.347 313.189 158.867 313.189 158.312C313.189 157.8 313.295 157.373 313.509 157.032C313.722 156.669 313.978 156.371 314.277 156.136C314.895 156.477 315.599 156.787 316.389 157.064C317.199 157.32 318.127 157.448 319.173 157.448C319.834 157.448 320.335 157.352 320.677 157.16C321.039 156.968 321.22 156.712 321.22 156.392C321.22 156.093 321.093 155.859 320.837 155.688C320.581 155.517 320.154 155.379 319.557 155.272L318.597 155.08C316.741 154.717 315.354 154.152 314.437 153.384C313.541 152.595 313.093 151.475 313.093 150.024C313.093 149.235 313.263 148.52 313.605 147.88C313.946 147.24 314.426 146.707 315.045 146.28C315.663 145.853 316.399 145.523 317.253 145.288C318.127 145.053 319.087 144.936 320.133 144.936C320.922 144.936 321.658 145 322.341 145.128C323.045 145.235 323.653 145.405 324.165 145.64C324.677 145.875 325.082 146.184 325.381 146.568C325.679 146.931 325.829 147.368 325.829 147.88C325.829 148.371 325.733 148.797 325.541 149.16C325.37 149.501 325.146 149.789 324.869 150.024C324.698 149.917 324.442 149.811 324.101 149.704C323.759 149.576 323.386 149.469 322.981 149.384C322.575 149.277 322.159 149.192 321.733 149.128C321.327 149.064 320.954 149.032 320.613 149.032C319.909 149.032 319.365 149.117 318.981 149.288C318.597 149.437 318.405 149.683 318.405 150.024C318.405 150.259 318.511 150.451 318.725 150.6C318.938 150.749 319.343 150.888 319.941 151.016L320.933 151.24C322.981 151.709 324.431 152.36 325.285 153.192C326.159 154.003 326.597 155.059 326.597 156.36ZM329.099 141.128C329.099 140.317 329.365 139.635 329.899 139.08C330.453 138.525 331.179 138.248 332.075 138.248C332.971 138.248 333.685 138.525 334.219 139.08C334.773 139.635 335.051 140.317 335.051 141.128C335.051 141.939 334.773 142.621 334.219 143.176C333.685 143.731 332.971 144.008 332.075 144.008C331.179 144.008 330.453 143.731 329.899 143.176C329.365 142.621 329.099 141.939 329.099 141.128ZM334.795 160.968C334.56 161.011 334.208 161.064 333.739 161.128C333.291 161.213 332.832 161.256 332.363 161.256C331.893 161.256 331.467 161.224 331.083 161.16C330.72 161.096 330.411 160.968 330.155 160.776C329.899 160.584 329.696 160.328 329.547 160.008C329.419 159.667 329.355 159.229 329.355 158.696V145.672C329.589 145.629 329.931 145.576 330.379 145.512C330.848 145.427 331.317 145.384 331.786 145.384C332.256 145.384 332.672 145.416 333.035 145.48C333.419 145.544 333.739 145.672 333.995 145.864C334.251 146.056 334.443 146.323 334.571 146.664C334.72 146.984 334.795 147.411 334.795 147.944V160.968ZM345.842 144.968C347.058 144.968 348.156 145.128 349.138 145.448C350.14 145.747 350.983 146.141 351.666 146.632C352.092 146.931 352.423 147.261 352.658 147.624C352.914 147.987 353.042 148.456 353.042 149.032V160.232C353.042 161.363 352.828 162.333 352.402 163.144C351.975 163.976 351.388 164.659 350.642 165.192C349.916 165.747 349.052 166.152 348.05 166.408C347.068 166.664 346.012 166.792 344.882 166.792C342.94 166.792 341.415 166.525 340.306 165.992C339.196 165.48 338.642 164.637 338.642 163.464C338.642 162.973 338.738 162.536 338.93 162.152C339.143 161.789 339.378 161.512 339.634 161.32C340.252 161.661 340.946 161.949 341.714 162.184C342.503 162.419 343.314 162.536 344.146 162.536C345.298 162.536 346.215 162.344 346.898 161.96C347.58 161.576 347.922 160.957 347.922 160.104V159.592C347.047 159.976 345.98 160.168 344.722 160.168C343.762 160.168 342.844 160.029 341.97 159.752C341.116 159.453 340.359 159.005 339.698 158.408C339.058 157.789 338.535 157 338.13 156.04C337.746 155.08 337.554 153.939 337.554 152.616C337.554 151.315 337.756 150.184 338.162 149.224C338.588 148.264 339.164 147.475 339.89 146.856C340.636 146.216 341.511 145.747 342.514 145.448C343.538 145.128 344.647 144.968 345.842 144.968ZM347.826 149.608C347.676 149.523 347.452 149.437 347.154 149.352C346.876 149.267 346.524 149.224 346.098 149.224C345.052 149.224 344.263 149.523 343.73 150.12C343.218 150.696 342.962 151.528 342.962 152.616C342.962 153.853 343.218 154.749 343.73 155.304C344.263 155.837 344.935 156.104 345.746 156.104C346.62 156.104 347.314 155.901 347.826 155.496V149.608ZM366.27 151.144C366.27 150.483 366.078 150.003 365.694 149.704C365.331 149.384 364.83 149.224 364.19 149.224C363.763 149.224 363.337 149.277 362.91 149.384C362.505 149.491 362.153 149.651 361.854 149.864V160.968C361.641 161.032 361.299 161.096 360.83 161.16C360.382 161.224 359.913 161.256 359.422 161.256C358.953 161.256 358.526 161.224 358.142 161.16C357.779 161.096 357.47 160.968 357.214 160.776C356.958 160.584 356.755 160.328 356.606 160.008C356.478 159.667 356.414 159.229 356.414 158.696V149.096C356.414 148.52 356.531 148.051 356.766 147.688C357.022 147.325 357.363 146.995 357.79 146.696C358.515 146.184 359.422 145.768 360.51 145.448C361.619 145.128 362.846 144.968 364.19 144.968C366.601 144.968 368.457 145.501 369.758 146.568C371.059 147.613 371.71 149.075 371.71 150.952V160.968C371.497 161.032 371.155 161.096 370.686 161.16C370.238 161.224 369.769 161.256 369.278 161.256C368.809 161.256 368.382 161.224 367.998 161.16C367.635 161.096 367.326 160.968 367.07 160.776C366.814 160.584 366.611 160.328 366.462 160.008C366.334 159.667 366.27 159.229 366.27 158.696V151.144ZM382.526 144.968C383.401 144.968 384.254 145.096 385.086 145.352C385.94 145.587 386.676 145.949 387.294 146.44C387.934 146.013 388.649 145.661 389.438 145.384C390.249 145.107 391.22 144.968 392.35 144.968C393.161 144.968 393.95 145.075 394.718 145.288C395.508 145.501 396.201 145.843 396.798 146.312C397.417 146.76 397.908 147.368 398.27 148.136C398.633 148.883 398.814 149.8 398.814 150.888V160.968C398.601 161.032 398.26 161.096 397.79 161.16C397.342 161.224 396.873 161.256 396.382 161.256C395.913 161.256 395.486 161.224 395.102 161.16C394.74 161.096 394.43 160.968 394.174 160.776C393.918 160.584 393.716 160.328 393.566 160.008C393.438 159.667 393.374 159.229 393.374 158.696V151.048C393.374 150.408 393.193 149.949 392.83 149.672C392.468 149.373 391.977 149.224 391.358 149.224C391.06 149.224 390.74 149.299 390.398 149.448C390.057 149.576 389.801 149.715 389.63 149.864C389.652 149.949 389.662 150.035 389.662 150.12C389.662 150.184 389.662 150.248 389.662 150.312V160.968C389.428 161.032 389.076 161.096 388.606 161.16C388.158 161.224 387.7 161.256 387.23 161.256C386.761 161.256 386.334 161.224 385.95 161.16C385.588 161.096 385.278 160.968 385.022 160.776C384.766 160.584 384.564 160.328 384.414 160.008C384.286 159.667 384.222 159.229 384.222 158.696V151.048C384.222 150.408 384.02 149.949 383.614 149.672C383.23 149.373 382.761 149.224 382.206 149.224C381.822 149.224 381.492 149.288 381.214 149.416C380.937 149.523 380.702 149.629 380.51 149.736V160.968C380.297 161.032 379.956 161.096 379.486 161.16C379.038 161.224 378.569 161.256 378.078 161.256C377.609 161.256 377.182 161.224 376.798 161.16C376.436 161.096 376.126 160.968 375.87 160.776C375.614 160.584 375.412 160.328 375.262 160.008C375.134 159.667 375.07 159.229 375.07 158.696V149.032C375.07 148.456 375.188 147.997 375.422 147.656C375.678 147.315 376.02 146.995 376.446 146.696C377.172 146.184 378.068 145.768 379.134 145.448C380.222 145.128 381.353 144.968 382.526 144.968ZM410.357 161.512C409.098 161.512 407.925 161.341 406.837 161C405.77 160.637 404.831 160.104 404.021 159.4C403.231 158.696 402.602 157.811 402.133 156.744C401.685 155.677 401.461 154.429 401.461 153C401.461 151.592 401.685 150.387 402.133 149.384C402.602 148.36 403.21 147.528 403.957 146.888C404.703 146.227 405.557 145.747 406.517 145.448C407.477 145.128 408.458 144.968 409.461 144.968C410.591 144.968 411.615 145.139 412.533 145.48C413.471 145.821 414.271 146.291 414.933 146.888C415.615 147.485 416.138 148.2 416.501 149.032C416.885 149.864 417.077 150.771 417.077 151.752C417.077 152.477 416.874 153.032 416.469 153.416C416.063 153.8 415.498 154.045 414.773 154.152L406.869 155.336C407.103 156.04 407.583 156.573 408.309 156.936C409.034 157.277 409.866 157.448 410.805 157.448C411.679 157.448 412.501 157.341 413.269 157.128C414.058 156.893 414.698 156.627 415.189 156.328C415.53 156.541 415.818 156.84 416.053 157.224C416.287 157.608 416.405 158.013 416.405 158.44C416.405 159.4 415.957 160.115 415.061 160.584C414.378 160.947 413.61 161.192 412.757 161.32C411.903 161.448 411.103 161.512 410.357 161.512ZM409.461 148.936C408.949 148.936 408.501 149.021 408.117 149.192C407.754 149.363 407.455 149.587 407.221 149.864C406.986 150.12 406.805 150.419 406.677 150.76C406.57 151.08 406.506 151.411 406.485 151.752L411.957 150.856C411.893 150.429 411.658 150.003 411.253 149.576C410.847 149.149 410.25 148.936 409.461 148.936ZM429.551 151.144C429.551 150.483 429.359 150.003 428.975 149.704C428.613 149.384 428.111 149.224 427.471 149.224C427.045 149.224 426.618 149.277 426.191 149.384C425.786 149.491 425.434 149.651 425.135 149.864V160.968C424.922 161.032 424.581 161.096 424.111 161.16C423.663 161.224 423.194 161.256 422.703 161.256C422.234 161.256 421.807 161.224 421.423 161.16C421.061 161.096 420.751 160.968 420.495 160.776C420.239 160.584 420.037 160.328 419.887 160.008C419.759 159.667 419.695 159.229 419.695 158.696V149.096C419.695 148.52 419.813 148.051 420.047 147.688C420.303 147.325 420.645 146.995 421.071 146.696C421.797 146.184 422.703 145.768 423.791 145.448C424.901 145.128 426.127 144.968 427.471 144.968C429.882 144.968 431.738 145.501 433.039 146.568C434.341 147.613 434.991 149.075 434.991 150.952V160.968C434.778 161.032 434.437 161.096 433.967 161.16C433.519 161.224 433.05 161.256 432.559 161.256C432.09 161.256 431.663 161.224 431.279 161.16C430.917 161.096 430.607 160.968 430.351 160.776C430.095 160.584 429.893 160.328 429.743 160.008C429.615 159.667 429.551 159.229 429.551 158.696V151.144ZM443.792 155.656C443.792 156.211 443.962 156.605 444.304 156.84C444.666 157.075 445.168 157.192 445.808 157.192C446.128 157.192 446.458 157.171 446.8 157.128C447.141 157.064 447.44 156.989 447.696 156.904C447.888 157.139 448.048 157.405 448.176 157.704C448.325 157.981 448.4 158.323 448.4 158.728C448.4 159.539 448.09 160.2 447.472 160.712C446.874 161.224 445.808 161.48 444.272 161.48C442.394 161.48 440.944 161.053 439.92 160.2C438.917 159.347 438.416 157.96 438.416 156.04V142.344C438.65 142.28 438.981 142.216 439.408 142.152C439.856 142.067 440.325 142.024 440.816 142.024C441.754 142.024 442.48 142.195 442.992 142.536C443.525 142.856 443.792 143.549 443.792 144.616V146.664H447.984C448.112 146.899 448.229 147.197 448.336 147.56C448.464 147.901 448.528 148.285 448.528 148.712C448.528 149.459 448.357 150.003 448.016 150.344C447.696 150.664 447.258 150.824 446.704 150.824H443.792V155.656Z" fill="white"/>
<path d="M261.12 234.272C261.12 232.608 261.376 231.136 261.888 229.856C262.421 228.576 263.136 227.509 264.032 226.656C264.949 225.781 266.016 225.12 267.232 224.672C268.469 224.224 269.803 224 271.232 224C272.661 224 273.984 224.224 275.2 224.672C276.437 225.12 277.515 225.781 278.432 226.656C279.349 227.509 280.064 228.576 280.576 229.856C281.109 231.136 281.376 232.608 281.376 234.272C281.376 235.936 281.12 237.419 280.608 238.72C280.096 240 279.381 241.077 278.464 241.952C277.568 242.805 276.501 243.456 275.264 243.904C274.027 244.352 272.683 244.576 271.232 244.576C269.781 244.576 268.437 244.352 267.2 243.904C265.963 243.435 264.896 242.763 264 241.888C263.104 241.013 262.4 239.936 261.888 238.656C261.376 237.376 261.12 235.915 261.12 234.272ZM266.88 234.272C266.88 236.213 267.275 237.664 268.064 238.624C268.853 239.584 269.909 240.064 271.232 240.064C272.576 240.064 273.643 239.584 274.432 238.624C275.221 237.664 275.616 236.213 275.616 234.272C275.616 232.352 275.221 230.912 274.432 229.952C273.664 228.992 272.608 228.512 271.264 228.512C269.941 228.512 268.875 228.992 268.064 229.952C267.275 230.891 266.88 232.331 266.88 234.272ZM302.148 243.328C301.849 243.627 301.412 243.851 300.836 244C300.281 244.171 299.609 244.256 298.82 244.256C298.031 244.256 297.284 244.139 296.58 243.904C295.876 243.669 295.3 243.104 294.852 242.208L291.684 235.744C291.364 235.083 291.076 234.464 290.82 233.888C290.564 233.291 290.287 232.608 289.988 231.84L289.796 231.872C289.881 233.024 289.924 234.197 289.924 235.392C289.945 236.587 289.956 237.76 289.956 238.912V243.872C289.721 243.936 289.359 244 288.868 244.064C288.399 244.128 287.929 244.16 287.46 244.16C286.991 244.16 286.575 244.128 286.212 244.064C285.849 244 285.551 243.872 285.316 243.68C285.081 243.488 284.9 243.232 284.772 242.912C284.644 242.571 284.58 242.133 284.58 241.6V225.6C284.879 225.173 285.337 224.853 285.956 224.64C286.575 224.427 287.236 224.32 287.94 224.32C288.729 224.32 289.476 224.448 290.18 224.704C290.905 224.939 291.481 225.493 291.908 226.368L295.108 232.832C295.428 233.493 295.716 234.123 295.972 234.72C296.228 235.296 296.505 235.968 296.804 236.736L296.964 236.704C296.879 235.552 296.825 234.4 296.804 233.248C296.783 232.096 296.772 230.944 296.772 229.792V224.608C297.007 224.544 297.359 224.48 297.828 224.416C298.319 224.352 298.799 224.32 299.268 224.32C300.207 224.32 300.921 224.491 301.412 224.832C301.903 225.152 302.148 225.835 302.148 226.88V243.328ZM322.593 228.512C320.95 228.512 319.692 229.013 318.817 230.016C317.942 231.019 317.505 232.437 317.505 234.272C317.505 236.128 317.985 237.557 318.945 238.56C319.926 239.563 321.238 240.064 322.881 240.064C323.756 240.064 324.492 239.947 325.089 239.712C325.708 239.477 326.294 239.211 326.849 238.912C327.212 239.211 327.489 239.573 327.681 240C327.894 240.405 328.001 240.885 328.001 241.44C328.001 242.315 327.51 243.061 326.529 243.68C325.569 244.277 324.097 244.576 322.113 244.576C320.684 244.576 319.34 244.373 318.081 243.968C316.822 243.563 315.724 242.944 314.785 242.112C313.846 241.259 313.1 240.192 312.545 238.912C312.012 237.611 311.745 236.064 311.745 234.272C311.745 232.608 312.001 231.147 312.513 229.888C313.046 228.608 313.761 227.531 314.657 226.656C315.574 225.781 316.641 225.12 317.857 224.672C319.073 224.224 320.374 224 321.761 224C323.724 224 325.238 224.32 326.305 224.96C327.393 225.6 327.937 226.421 327.937 227.424C327.937 227.979 327.798 228.459 327.521 228.864C327.244 229.269 326.924 229.589 326.561 229.824C326.006 229.461 325.409 229.152 324.769 228.896C324.15 228.64 323.425 228.512 322.593 228.512ZM329.714 234.272C329.714 232.608 329.97 231.136 330.482 229.856C331.015 228.576 331.73 227.509 332.626 226.656C333.543 225.781 334.61 225.12 335.826 224.672C337.063 224.224 338.396 224 339.826 224C341.255 224 342.578 224.224 343.794 224.672C345.031 225.12 346.108 225.781 347.026 226.656C347.943 227.509 348.658 228.576 349.17 229.856C349.703 231.136 349.97 232.608 349.97 234.272C349.97 235.936 349.714 237.419 349.202 238.72C348.69 240 347.975 241.077 347.058 241.952C346.162 242.805 345.095 243.456 343.858 243.904C342.62 244.352 341.276 244.576 339.826 244.576C338.375 244.576 337.031 244.352 335.794 243.904C334.556 243.435 333.49 242.763 332.594 241.888C331.698 241.013 330.994 239.936 330.482 238.656C329.97 237.376 329.714 235.915 329.714 234.272ZM335.474 234.272C335.474 236.213 335.868 237.664 336.658 238.624C337.447 239.584 338.503 240.064 339.826 240.064C341.17 240.064 342.236 239.584 343.026 238.624C343.815 237.664 344.21 236.213 344.21 234.272C344.21 232.352 343.815 230.912 343.026 229.952C342.258 228.992 341.202 228.512 339.858 228.512C338.535 228.512 337.468 228.992 336.658 229.952C335.868 230.891 335.474 232.331 335.474 234.272ZM366.488 239.232C366.211 239.467 365.848 239.659 365.4 239.808C364.973 239.936 364.472 240 363.896 240C363.128 240 362.488 239.904 361.976 239.712C361.485 239.52 361.165 239.189 361.016 238.72C360.419 236.843 359.928 235.328 359.544 234.176C359.16 233.003 358.861 231.979 358.648 231.104H358.488C358.424 232.363 358.371 233.515 358.328 234.56C358.307 235.584 358.285 236.587 358.264 237.568C358.264 238.549 358.243 239.541 358.2 240.544C358.179 241.547 358.136 242.656 358.072 243.872C357.795 243.979 357.432 244.064 356.984 244.128C356.536 244.213 356.088 244.256 355.64 244.256C354.701 244.256 353.965 244.107 353.432 243.808C352.92 243.509 352.664 242.965 352.664 242.176L353.592 225.856C353.763 225.579 354.136 225.28 354.712 224.96C355.288 224.64 356.099 224.48 357.144 224.48C358.275 224.48 359.16 224.661 359.8 225.024C360.44 225.365 360.909 225.931 361.208 226.72C361.4 227.232 361.603 227.819 361.816 228.48C362.051 229.141 362.275 229.824 362.488 230.528C362.723 231.232 362.947 231.936 363.16 232.64C363.373 233.323 363.565 233.941 363.736 234.496H363.896C364.408 232.704 364.92 230.976 365.432 229.312C365.944 227.627 366.413 226.219 366.84 225.088C367.16 224.917 367.565 224.779 368.056 224.672C368.568 224.544 369.133 224.48 369.752 224.48C370.797 224.48 371.651 224.64 372.312 224.96C372.973 225.259 373.357 225.696 373.464 226.272C373.549 226.699 373.635 227.36 373.72 228.256C373.827 229.131 373.933 230.123 374.04 231.232C374.147 232.341 374.253 233.515 374.36 234.752C374.467 235.989 374.563 237.184 374.648 238.336C374.755 239.467 374.84 240.512 374.904 241.472C374.968 242.411 375.011 243.136 375.032 243.648C374.669 243.861 374.285 244.011 373.88 244.096C373.496 244.203 372.995 244.256 372.376 244.256C371.565 244.256 370.883 244.117 370.328 243.84C369.773 243.563 369.475 243.019 369.432 242.208C369.304 239.883 369.219 237.792 369.176 235.936C369.155 234.08 369.112 232.523 369.048 231.264H368.888C368.675 232.096 368.365 233.141 367.96 234.4C367.555 235.659 367.064 237.269 366.488 239.232ZM385.844 233.6C386.74 233.6 387.423 233.397 387.892 232.992C388.383 232.565 388.628 231.925 388.628 231.072C388.628 230.261 388.372 229.643 387.86 229.216C387.369 228.768 386.644 228.544 385.684 228.544C385.343 228.544 385.055 228.555 384.82 228.576C384.607 228.576 384.383 228.597 384.148 228.64V233.6H385.844ZM384.18 243.872C383.945 243.936 383.572 244 383.06 244.064C382.569 244.128 382.079 244.16 381.588 244.16C381.097 244.16 380.66 244.117 380.276 244.032C379.913 243.968 379.604 243.84 379.348 243.648C379.092 243.456 378.9 243.189 378.772 242.848C378.644 242.507 378.58 242.059 378.58 241.504V226.432C378.58 225.984 378.697 225.643 378.932 225.408C379.188 225.152 379.529 224.949 379.956 224.8C380.681 224.544 381.503 224.363 382.42 224.256C383.359 224.128 384.297 224.064 385.236 224.064C388.18 224.064 390.431 224.693 391.988 225.952C393.545 227.211 394.324 228.917 394.324 231.072C394.324 232.117 394.153 233.067 393.812 233.92C393.492 234.752 393.001 235.477 392.34 236.096C391.7 236.693 390.879 237.163 389.876 237.504C388.895 237.824 387.753 237.984 386.452 237.984H384.18V243.872ZM396.214 234.272C396.214 232.608 396.47 231.136 396.982 229.856C397.515 228.576 398.23 227.509 399.126 226.656C400.043 225.781 401.11 225.12 402.326 224.672C403.563 224.224 404.896 224 406.326 224C407.755 224 409.078 224.224 410.294 224.672C411.531 225.12 412.608 225.781 413.526 226.656C414.443 227.509 415.158 228.576 415.67 229.856C416.203 231.136 416.47 232.608 416.47 234.272C416.47 235.936 416.214 237.419 415.702 238.72C415.19 240 414.475 241.077 413.558 241.952C412.662 242.805 411.595 243.456 410.358 243.904C409.12 244.352 407.776 244.576 406.326 244.576C404.875 244.576 403.531 244.352 402.294 243.904C401.056 243.435 399.99 242.763 399.094 241.888C398.198 241.013 397.494 239.936 396.982 238.656C396.47 237.376 396.214 235.915 396.214 234.272ZM401.974 234.272C401.974 236.213 402.368 237.664 403.158 238.624C403.947 239.584 405.003 240.064 406.326 240.064C407.67 240.064 408.736 239.584 409.526 238.624C410.315 237.664 410.71 236.213 410.71 234.272C410.71 232.352 410.315 230.912 409.526 229.952C408.758 228.992 407.702 228.512 406.358 228.512C405.035 228.512 403.968 228.992 403.158 229.952C402.368 230.891 401.974 232.331 401.974 234.272ZM425.178 236.288C424.239 235.968 423.386 235.648 422.618 235.328C421.85 234.987 421.188 234.581 420.634 234.112C420.079 233.643 419.642 233.088 419.322 232.448C419.023 231.787 418.874 230.987 418.874 230.048C418.874 228.235 419.567 226.784 420.954 225.696C422.362 224.608 424.324 224.064 426.842 224.064C427.759 224.064 428.612 224.128 429.402 224.256C430.191 224.384 430.863 224.587 431.418 224.864C431.994 225.12 432.442 225.461 432.762 225.888C433.082 226.293 433.242 226.773 433.242 227.328C433.242 227.883 433.114 228.363 432.858 228.768C432.602 229.152 432.292 229.483 431.93 229.76C431.46 229.461 430.831 229.205 430.042 228.992C429.252 228.757 428.388 228.64 427.45 228.64C426.49 228.64 425.786 228.779 425.338 229.056C424.89 229.312 424.666 229.643 424.666 230.048C424.666 230.368 424.804 230.635 425.082 230.848C425.359 231.04 425.775 231.221 426.33 231.392L428.026 231.936C430.031 232.576 431.567 233.397 432.634 234.4C433.722 235.381 434.266 236.725 434.266 238.432C434.266 240.245 433.551 241.717 432.122 242.848C430.692 243.957 428.591 244.512 425.818 244.512C424.836 244.512 423.919 244.427 423.066 244.256C422.234 244.107 421.498 243.883 420.858 243.584C420.239 243.264 419.748 242.88 419.386 242.432C419.044 241.963 418.874 241.429 418.874 240.832C418.874 240.213 419.055 239.691 419.418 239.264C419.78 238.816 420.175 238.475 420.602 238.24C421.199 238.709 421.924 239.115 422.778 239.456C423.652 239.797 424.602 239.968 425.626 239.968C426.671 239.968 427.407 239.808 427.834 239.488C428.26 239.168 428.474 238.795 428.474 238.368C428.474 237.941 428.303 237.621 427.962 237.408C427.62 237.173 427.14 236.949 426.522 236.736L425.178 236.288ZM437.299 227.584C437.299 226.667 437.565 225.941 438.099 225.408C438.632 224.875 439.357 224.608 440.275 224.608H450.835C450.984 224.843 451.112 225.152 451.219 225.536C451.347 225.92 451.411 226.325 451.411 226.752C451.411 227.563 451.229 228.139 450.867 228.48C450.525 228.821 450.067 228.992 449.491 228.992H442.739V231.968H449.939C450.088 232.203 450.216 232.512 450.323 232.896C450.451 233.259 450.515 233.653 450.515 234.08C450.515 234.891 450.344 235.467 450.003 235.808C449.661 236.149 449.203 236.32 448.627 236.32H442.739V239.68H450.963C451.112 239.915 451.24 240.224 451.347 240.608C451.475 240.992 451.539 241.397 451.539 241.824C451.539 242.635 451.357 243.221 450.995 243.584C450.653 243.925 450.195 244.096 449.619 244.096H440.275C439.357 244.096 438.632 243.829 438.099 243.296C437.565 242.763 437.299 242.037 437.299 241.12V227.584Z" fill="white"/>
<path d="M42 386V329.36H47.76V386H42ZM50.64 386V329.36H59.28V386H50.64ZM67.92 386V329.36H70.8V386H67.92ZM56.304 396.56H50.064V394.352H65.424V396.56H58.896V416.624H56.304V396.56ZM73.6875 386V329.36H76.5675V386H73.6875ZM85.2075 386V329.36H90.9675V386H85.2075ZM93.8475 386V329.36H96.7275V386H93.8475ZM82.7115 394.352H96.3435V396.56H85.0155V403.856H94.4235V406.16H85.0155V414.416H96.2475V416.624H82.7115V394.352ZM105.375 386V329.36H108.255V386H105.375ZM116.895 386V329.36H119.775V386H116.895ZM128.415 386V329.36H134.175V386H128.415ZM122.463 417.008C120.799 417.008 119.327 416.592 118.047 415.76C116.703 414.928 115.647 413.68 114.879 412.016C114.111 410.288 113.727 408.144 113.727 405.584C113.727 402.896 114.143 400.688 114.975 398.96C115.807 397.296 116.863 396.08 118.143 395.312C119.423 394.608 120.799 394.256 122.271 394.256C123.871 394.256 125.247 394.64 126.399 395.408C127.551 396.176 128.415 397.232 128.991 398.576L126.879 399.632L126.591 399.728L126.495 399.536V399.248C126.495 398.992 126.335 398.64 126.015 398.192C125.503 397.488 124.927 396.976 124.287 396.656C123.647 396.336 122.975 396.176 122.271 396.176C120.351 396.176 118.847 397.008 117.759 398.672C116.735 400.272 116.223 402.544 116.223 405.488C116.223 407.28 116.479 408.912 116.991 410.384C117.567 411.792 118.303 412.88 119.199 413.648C120.159 414.416 121.215 414.8 122.367 414.8C123.263 414.8 124.095 414.576 124.863 414.128C125.695 413.616 126.367 412.944 126.879 412.112L128.703 413.36C127.935 414.576 127.071 415.472 126.111 416.048C125.087 416.688 123.871 417.008 122.463 417.008ZM137.062 386V329.36H142.823V386H137.062ZM151.463 386V329.36H154.343V386H151.463ZM157.223 386V329.36H160.103V386H157.223ZM145.799 394.352H148.679V394.64C148.551 394.768 148.455 394.928 148.391 395.12C148.391 395.248 148.391 395.536 148.391 395.984V403.856H157.031V394.352H160.007V394.64C159.879 394.768 159.783 394.928 159.719 395.12C159.719 395.248 159.719 395.536 159.719 395.984V416.624H157.031V406.064H148.391V416.624H145.799V394.352ZM168.75 386V329.36H174.51V386H168.75ZM183.15 386V329.36H186.03V386H183.15ZM194.67 386V329.36H197.55V386H194.67ZM178.542 414.512H182.958V396.464H178.83V394.352H189.87V396.464H185.454V414.512H190.062V416.624H178.542V414.512ZM200.438 386V329.36H203.318V386H200.438ZM211.958 386V329.36H217.718V386H211.958ZM220.598 386V329.36H223.478V386H220.598ZM209.462 394.352H223.094V396.56H211.766V403.856H221.174V406.16H211.766V414.416H222.998V416.624H209.462V394.352ZM232.125 386V329.36H237.885V386H232.125ZM240.765 386V329.36H246.525V386H240.765ZM252.285 386V329.36H258.045V386H252.285ZM263.812 386V329.36H266.693V386H263.812ZM275.333 386V329.36H278.213V386H275.333ZM281.093 386V329.36H286.853V386H281.093ZM272.453 394.352H278.789C281.221 394.352 283.045 394.832 284.261 395.792C285.541 396.752 286.181 398.096 286.181 399.824C286.181 400.912 285.893 401.904 285.317 402.8C284.677 403.696 283.845 404.336 282.821 404.72C284.101 405.168 285.125 405.904 285.893 406.928C286.661 408.016 287.045 409.168 287.045 410.384C287.045 412.304 286.341 413.84 284.933 414.992C283.589 416.08 281.509 416.624 278.693 416.624H272.453V394.352ZM278.405 403.568C281.925 403.568 283.685 402.384 283.685 400.016C283.685 398.992 283.269 398.16 282.437 397.52C281.669 396.816 280.453 396.464 278.789 396.464H274.853V403.568H278.405ZM279.173 414.416C282.629 414.416 284.357 413.008 284.357 410.192C284.357 407.184 282.405 405.68 278.501 405.68H274.853V414.416H279.173ZM295.5 386V329.36H301.26V386H295.5ZM304.14 386V329.36H312.78V386H304.14ZM315.66 386V329.36H324.3V386H315.66ZM311.34 417.008C309.036 417.008 307.276 416.304 306.06 414.896C304.844 413.488 304.236 411.504 304.236 408.944V394.352H307.02V394.64C306.828 394.768 306.732 394.928 306.732 395.12C306.668 395.248 306.636 395.536 306.636 395.984V408.944C306.636 410.864 307.02 412.336 307.788 413.36C308.492 414.384 309.708 414.896 311.436 414.896C313.1 414.896 314.316 414.384 315.084 413.36C315.852 412.336 316.236 410.832 316.236 408.848V394.352H318.636V408.848C318.636 411.6 317.996 413.648 316.716 414.992C315.436 416.336 313.644 417.008 311.34 417.008ZM327.188 386V329.36H332.948V386H327.188ZM335.828 386V329.36H344.468V386H335.828ZM353.108 386V329.36H355.988V386H353.108ZM341.492 396.56H335.252V394.352H350.612V396.56H344.084V416.624H341.492V396.56ZM358.875 386V329.36H361.755V386H358.875ZM370.395 386V329.36H376.155V386H370.395ZM379.035 386V329.36H387.675V386H379.035ZM368.187 394.352H371.067V394.64C370.939 394.768 370.843 394.928 370.779 395.12C370.779 395.248 370.779 395.536 370.779 395.984V414.512H381.435V416.624H368.187V394.352ZM390.562 386V329.36H393.443V386H390.562ZM402.083 386V329.36H407.843V386H402.083ZM410.723 386V329.36H413.603V386H410.723ZM399.587 394.352H413.219V396.56H401.891V403.856H411.299V406.16H401.891V414.416H413.123V416.624H399.587V394.352ZM422.25 386V329.36H428.01V386H422.25ZM436.65 386V329.36H439.53V386H436.65ZM442.41 386V329.36H451.05V386H442.41ZM431.178 394.352H437.706C440.266 394.352 442.122 394.928 443.274 396.08C444.49 397.168 445.098 398.736 445.098 400.784C445.098 402.064 444.682 403.28 443.85 404.432C443.018 405.584 441.93 406.352 440.586 406.736L445.77 416.624H442.986L437.994 406.832H433.674V416.624H431.178V394.352ZM437.994 404.624C439.53 404.624 440.682 404.272 441.45 403.568C442.154 402.928 442.506 402 442.506 400.784C442.506 399.568 442.154 398.576 441.45 397.808C440.682 397.104 439.53 396.752 437.994 396.752H433.674V404.624H437.994Z" fill="white"/>
</svg>
